<svg id="Layer_1" data-name="Layer 1" xmlns="http://www.w3.org/2000/svg" viewBox="0 0 17.3 19.53"><defs><style>.cls-1{fill:#0037ff;}</style></defs><path class="cls-1" d="M8.56,17.56a.52.52,0,0,1-.48-.33,2.31,2.31,0,0,0-.46-.69L2.55,10.38.75,8.2a.26.26,0,0,1,.12-.44.25.25,0,0,1,.22.06L1.28,8,3.8,10.52l2.29,2.29a1,1,0,0,0,1,.25,1,1,0,0,0,.7-.78,4,4,0,0,0,0-.49L8,8.84c0-.87.09-1.75.14-2.62L8.28,3.5c0-.73.07-1.46.11-2.18a.26.26,0,1,1,.51,0C8.93,1.86,9,2.41,9,3s.08,1.32.11,2l.15,2.72c0,.9.1,1.81.14,2.71,0,.61.06,1.22.11,1.83a1,1,0,0,0,.64.85,1,1,0,0,0,1.06-.22l1.91-1.91,3.14-3.14a.23.23,0,0,1,.26-.08.25.25,0,0,1,.18.2.28.28,0,0,1-.07.23c-.41.48-.81,1-1.21,1.45L11,14.94l-1.62,2a1.2,1.2,0,0,0-.16.27A.61.61,0,0,1,8.56,17.56Z"/><path class="cls-1" d="M8.61,19.53l-.68-1.65a.82.82,0,0,0,.67.34.86.86,0,0,0,.69-.34Z"/><path class="cls-1" d="M.9,7.44c-.37,0-.56.2-.56.51L0,7Z"/><path class="cls-1" d="M8.29.93,8.68,0l.37.91C8.73.68,8.57.68,8.29.93Z"/><path class="cls-1" d="M16.4,7.44,17.3,7,17,8C16.9,7.58,16.78,7.47,16.4,7.44Z"/></svg>