<?xml version="1.0" encoding="utf-8"?>
<!-- Generator: Adobe Illustrator 24.2.3, SVG Export Plug-In . SVG Version: 6.00 Build 0)  -->
<svg version="1.1" id="Layer_1" xmlns="http://www.w3.org/2000/svg" xmlns:xlink="http://www.w3.org/1999/xlink" x="0px" y="0px"
	 viewBox="0 0 29.7 29.7" style="enable-background:new 0 0 29.7 29.7;" xml:space="preserve">
<style type="text/css">
	.st0{fill:#00E8CC;stroke:#1547FF;stroke-miterlimit:10;}
	.st1{fill:#0037FF;}
</style>
<path class="st0" d="M27.4,16.4l1.6-1.6l-1.6-1.6c-0.7-0.7-1.1-1.7-1.1-2.6V9c0-3.1-2.5-5.6-5.6-5.6c0,0,0,0,0,0h-1.7
	c-1,0-1.9-0.4-2.6-1.1l-1.6-1.6l-1.6,1.6c-0.7,0.7-1.7,1.1-2.7,1.1H9C5.9,3.4,3.4,5.9,3.4,9v1.7c0,1-0.4,1.9-1.1,2.6l-1.6,1.6
	l1.6,1.6c0.7,0.7,1.1,1.7,1.1,2.6v1.7c0,3.1,2.5,5.6,5.6,5.6l0,0h1.7c1,0,1.9,0.4,2.7,1.1l1.6,1.6l1.6-1.6c0.7-0.7,1.7-1.1,2.6-1.1
	h1.7c3.1,0,5.6-2.5,5.6-5.6c0,0,0,0,0,0v-1.7C26.4,18.1,26.7,17.1,27.4,16.4z"/>
<path class="st1" d="M14.8,22.3c-0.2,0-0.4-0.1-0.5-0.3c-0.1-0.3-0.3-0.5-0.5-0.7l-5.1-6.2L7,12.9c-0.1-0.1-0.1-0.3,0-0.4
	c0,0,0.1-0.1,0.1-0.1c0.1,0,0.2,0,0.2,0.1l0.2,0.2l2.5,2.5l2.3,2.3c0.4,0.4,1,0.4,1.4,0c0.2-0.1,0.3-0.3,0.3-0.6c0-0.2,0-0.3,0-0.5
	c0.1-1,0.1-2,0.2-2.9s0.1-1.8,0.1-2.6s0.1-1.8,0.1-2.7l0.1-2.2c0-0.1,0.1-0.2,0.2-0.2s0.2,0.1,0.2,0.2l0.1,1.6c0,0.7,0.1,1.3,0.1,2
	c0,0.9,0.1,1.8,0.1,2.7l0.1,2.7c0,0.6,0.1,1.2,0.1,1.8c0,0.4,0.3,0.7,0.6,0.9c0.4,0.2,0.8,0.1,1.1-0.2c0.6-0.6,1.3-1.3,1.9-1.9
	l3.1-3.1c0.1-0.1,0.2-0.1,0.2-0.1c0.1,0,0.2,0.1,0.2,0.2c0,0.1,0,0.2-0.1,0.2l-1.2,1.5l-4.4,5.3l-1.6,2c-0.1,0.1-0.1,0.2-0.2,0.3
	C15.3,22.2,15,22.3,14.8,22.3z"/>
<path class="st1" d="M14.8,24.3l-0.6-1.6c0.2,0.2,0.4,0.3,0.7,0.3c0.3,0,0.5-0.1,0.7-0.3L14.8,24.3z"/>
<path class="st1" d="M7.1,12.2c-0.4,0-0.6,0.2-0.6,0.5l-0.4-0.9L7.1,12.2z"/>
<path class="st1" d="M14.5,5.7l0.4-0.9l0.4,0.9C14.9,5.4,14.8,5.4,14.5,5.7z"/>
<path class="st1" d="M22.6,12.2l0.9-0.4l-0.3,0.9C23.1,12.3,23,12.2,22.6,12.2z"/>
</svg>
