<?xml version="1.0" encoding="utf-8"?>
<!-- Generator: Adobe Illustrator 24.2.3, SVG Export Plug-In . SVG Version: 6.00 Build 0)  -->
<svg version="1.1" id="Layer_1" xmlns="http://www.w3.org/2000/svg" xmlns:xlink="http://www.w3.org/1999/xlink" x="0px" y="0px"
	 viewBox="0 0 29.7 29.7" style="enable-background:new 0 0 29.7 29.7;" xml:space="preserve">
<style type="text/css">
	.st0{fill:#FF3000;stroke:#FFEADA;stroke-miterlimit:10;}
	.st1{fill:#FF3000;stroke:#FFEADA;stroke-width:0.75;stroke-miterlimit:10;}
	.st2{fill:#FF3000;stroke:#FFEADA;stroke-width:1.2;stroke-miterlimit:10;}
	.st3{fill:#FF3000;}
</style>
<path class="st0" d="M27.4,16.4l1.6-1.6l-1.6-1.6c-0.7-0.7-1.1-1.7-1.1-2.6V9c0-3.1-2.5-5.6-5.6-5.6c0,0,0,0,0,0h-1.7
	c-1,0-1.9-0.4-2.6-1.1l-1.6-1.6l-1.6,1.6c-0.7,0.7-1.7,1.1-2.7,1.1H9C5.9,3.4,3.4,5.9,3.4,9v1.7c0,1-0.4,1.9-1.1,2.6l-1.6,1.6
	l1.6,1.6c0.7,0.7,1.1,1.7,1.1,2.6v1.7c0,3.1,2.5,5.6,5.6,5.6c0,0,0,0,0,0h1.7c1,0,1.9,0.4,2.7,1.1l1.6,1.6l1.6-1.6
	c0.7-0.7,1.7-1.1,2.6-1.1h1.7c3.1,0,5.6-2.5,5.6-5.6c0,0,0,0,0,0v-1.7C26.4,18.1,26.7,17.1,27.4,16.4z"/>
<line class="st1" x1="10.7" y1="8.4" x2="18.7" y2="22"/>
<line class="st2" x1="10.5" y1="8.2" x2="18.8" y2="22.3"/>
<line class="st2" x1="18.8" y1="8.2" x2="10.5" y2="22.3"/>
<rect x="9.8" y="7" class="st3" width="11.4" height="1.5"/>
<rect x="9.8" y="21.9" class="st3" width="11.4" height="1.5"/>
</svg>
