<?xml version="1.0" encoding="utf-8"?>
<!-- Generator: Adobe Illustrator 24.2.1, SVG Export Plug-In . SVG Version: 6.00 Build 0)  -->
<svg version="1.1" id="Layer_1" xmlns="http://www.w3.org/2000/svg" xmlns:xlink="http://www.w3.org/1999/xlink" x="0px" y="0px"
	 viewBox="0 0 29.37 29.37" style="enable-background:new 0 0 29.37 29.37;" xml:space="preserve">
<style type="text/css">
	.st0{fill:#0049FF;stroke:#ECFFC2;stroke-width:0.75;stroke-miterlimit:10;}
	.st1{fill:#ECFFC2;stroke:#0049FF;stroke-width:0.5;stroke-miterlimit:10;}
</style>
<path class="st0" d="M27.27,16.26l1.57-1.58l-1.57-1.57c-0.7-0.71-1.09-1.66-1.09-2.65V8.79c0.01-3.09-2.5-5.6-5.59-5.61
	c0,0-0.01,0-0.01,0h-1.67c-0.99,0-1.94-0.39-2.65-1.08l-1.58-1.57L13.11,2.1c-0.71,0.69-1.66,1.08-2.65,1.08H8.79
	c-3.1,0-5.61,2.51-5.61,5.61v1.67c0,0.99-0.39,1.94-1.08,2.65l-1.57,1.57l1.57,1.58c0.69,0.71,1.08,1.66,1.08,2.65v1.67
	c0,3.09,2.51,5.6,5.6,5.6c0,0,0.01,0,0.01,0h1.67c0.99,0,1.94,0.39,2.65,1.09l1.57,1.57l1.58-1.57c0.71-0.7,1.66-1.09,2.65-1.09
	h1.67c3.09,0.01,5.59-2.49,5.6-5.58c0-0.01,0-0.01,0-0.02v-1.67C26.18,17.92,26.57,16.97,27.27,16.26z"/>
<g>
	<g>
		<path class="st1" d="M17.67,12.14c0-2.99-1.34-5.41-2.99-5.41c-1.65,0-2.99,2.42-2.99,5.41c0,0.97,0.14,1.87,0.38,2.66l0.45,2.75
			h4.29l0.45-2.75C17.53,14.01,17.67,13.1,17.67,12.14z"/>
		<path class="st1" d="M12.54,20.96c0,1.15,0.94,2.09,2.09,2.09h0.11c1.15,0,2.09-0.94,2.09-2.09v-2.05h-4.29V20.96z"/>
	</g>
</g>
</svg>
