<?xml version="1.0" encoding="utf-8"?>
<!-- Generator: Adobe Illustrator 24.2.3, SVG Export Plug-In . SVG Version: 6.00 Build 0)  -->
<svg version="1.1" id="Layer_1" xmlns="http://www.w3.org/2000/svg" xmlns:xlink="http://www.w3.org/1999/xlink" x="0px" y="0px"
	 viewBox="0 0 29.7 29.7" style="enable-background:new 0 0 29.7 29.7;" xml:space="preserve">
<style type="text/css">
	.st0{fill:#FF3000;stroke:#B9E88B;stroke-miterlimit:10;}
	.st1{fill:#B9E88B;}
	.st2{fill:#CCE1B8;stroke:#FF3000;stroke-width:0.75;stroke-miterlimit:10;}
</style>
<path class="st0" d="M27.4,16.4l1.6-1.6l-1.6-1.6c-0.7-0.7-1.1-1.7-1.1-2.6V9c0-3.1-2.5-5.6-5.6-5.6c0,0,0,0,0,0h-1.7
	c-1,0-1.9-0.4-2.6-1.1l-1.6-1.6l-1.6,1.6c-0.7,0.7-1.7,1.1-2.7,1.1H9C5.9,3.4,3.4,5.9,3.4,9v1.7c0,1-0.4,1.9-1.1,2.6l-1.6,1.6
	l1.6,1.6c0.7,0.7,1.1,1.7,1.1,2.6v1.7c0,3.1,2.5,5.6,5.6,5.6c0,0,0,0,0,0h1.7c1,0,1.9,0.4,2.7,1.1l1.6,1.6l1.6-1.6
	c0.7-0.7,1.7-1.1,2.6-1.1h1.7c3.1,0,5.6-2.5,5.6-5.6c0,0,0,0,0,0v-1.7C26.4,18.1,26.7,17.1,27.4,16.4z"/>
<path class="st1" d="M21.7,11.4l-6-6c-0.7,0-1,0-1.7,0l-6,6v6.8l2.3,2.3v-4.1c0-0.6,0.5-0.6,1.1,0c0.6,0.6,1.1,1.7,1.1,2.3v4.1
	l1.5,1.5c0.7,0,1,0,1.7,0l6-6L21.7,11.4z"/>
<path class="st2" d="M-37.2-31.6h-12c-0.6,0-1.1,0.2-1.6,0.6l-2,1.9l-2-1.9c-0.4-0.4-1-0.6-1.6-0.6h-12c-0.1,2.1-1.8,3.7-3.9,3.7
	v14.1c2.1-0.1,3.9,1.6,3.9,3.7c0,0,0,0,0,0h12c0.6,0,1.1-0.2,1.5-0.6l2-1.9l2,1.9c0.4,0.4,0.9,0.6,1.5,0.6h12
	c0.1-2.1,1.8-3.7,3.9-3.7v-14.1C-35.5-27.9-37.1-29.5-37.2-31.6z"/>
<text transform="matrix(1 0 0 1 -68.3534 -16.2358)" style="fill:#FF3000; font-family:'AppleSDGothicNeo-Bold-KSCpc-EUC-H'; font-size:12px;">초록방</text>
</svg>
