<?xml version="1.0" encoding="utf-8"?>
<!-- Generator: Adobe Illustrator 24.2.3, SVG Export Plug-In . SVG Version: 6.00 Build 0)  -->
<svg version="1.1" id="Layer_1" xmlns="http://www.w3.org/2000/svg" xmlns:xlink="http://www.w3.org/1999/xlink" x="0px" y="0px"
	 viewBox="0 0 29.7 29.7" style="enable-background:new 0 0 29.7 29.7;" xml:space="preserve">
<style type="text/css">
	.st0{fill:#00E8CC;stroke:#1547FF;stroke-miterlimit:10;}
	.st1{fill:#0037FF;}
</style>
<path class="st0" d="M27.4,16.4l1.6-1.6l-1.6-1.6c-0.7-0.7-1.1-1.7-1.1-2.6V9c0-3.1-2.5-5.6-5.6-5.6c0,0,0,0,0,0h-1.7
	c-1,0-1.9-0.4-2.6-1.1l-1.6-1.6l-1.6,1.6c-0.7,0.7-1.7,1.1-2.7,1.1H9C5.9,3.4,3.4,5.9,3.4,9v1.7c0,1-0.4,1.9-1.1,2.6l-1.6,1.6
	l1.6,1.6c0.7,0.7,1.1,1.7,1.1,2.6v1.7c0,3.1,2.5,5.6,5.6,5.6l0,0h1.7c1,0,1.9,0.4,2.7,1.1l1.6,1.6l1.6-1.6c0.7-0.7,1.7-1.1,2.6-1.1
	h1.7c3.1,0,5.6-2.5,5.6-5.6c0,0,0,0,0,0v-1.7C26.4,18.1,26.7,17.1,27.4,16.4z"/>
<path class="st1" d="M13.4,10.3c-0.4-2.4-1.7-4.1-3-3.9C9.1,6.5,8.3,8.6,8.7,11c0.1,0.7,0.3,1.4,0.6,2.1l0.6,1.9
	c0,0.1,0.2,0.2,0.3,0.2l2.9-0.4c0.1,0,0.2-0.1,0.2-0.3v-2C13.5,11.7,13.5,11,13.4,10.3z"/>
<path class="st1" d="M10.4,18.1c0.1,0.9,1,1.5,1.9,1.4h0.1c0.9-0.1,1.5-1,1.4-1.9l-0.3-1.4c0-0.2-0.2-0.2-0.3-0.2l-2.6,0.4
	c-0.1,0-0.3,0.2-0.2,0.3L10.4,18.1z"/>
<path class="st1" d="M21.5,18.1c1.4-1.9,1.8-4.1,0.7-4.9c-1-0.8-3.1,0.1-4.5,2c-0.4,0.6-0.8,1.2-1,1.9l-0.9,1.8
	c-0.1,0.1,0,0.3,0.1,0.4l2.4,1.8c0.1,0.1,0.3,0.1,0.4,0l1.4-1.4C20.6,19.3,21.1,18.7,21.5,18.1z"/>
<path class="st1" d="M13.8,21.5c-0.5,0.7-0.4,1.8,0.3,2.3l0.1,0.1c0.7,0.6,1.8,0.4,2.4-0.3l0.7-1.2c0.1-0.1,0-0.3-0.1-0.4l-2.1-1.6
	c-0.1-0.1-0.3-0.1-0.4,0L13.8,21.5z"/>
</svg>
