<?xml version="1.0" encoding="utf-8"?>
<!-- Generator: Adobe Illustrator 24.2.3, SVG Export Plug-In . SVG Version: 6.00 Build 0)  -->
<svg version="1.1" id="Layer_1" xmlns="http://www.w3.org/2000/svg" xmlns:xlink="http://www.w3.org/1999/xlink" x="0px" y="0px"
	 viewBox="0 0 29.8 29.9" style="enable-background:new 0 0 29.8 29.9;" xml:space="preserve">
<style type="text/css">
	.st0{fill:#0049FF;stroke:#ECFFC2;stroke-miterlimit:10;}
	.st1{fill:#ECFFC2;}
</style>
<path class="st0" d="M27.5,16.5l1.6-1.6l-1.6-1.6c-0.7-0.7-1.1-1.7-1.1-2.6V9c0-3.1-2.5-5.6-5.6-5.6l0,0h-1.7c-1,0-1.9-0.4-2.6-1.1
	l-1.6-1.6l-1.6,1.6c-0.7,0.7-1.7,1.1-2.7,1.1H9C5.9,3.4,3.4,5.9,3.4,9v1.7c0,1-0.4,1.9-1.1,2.7L0.7,15l1.6,1.6
	c0.7,0.7,1.1,1.7,1.1,2.6v1.7c0,3.1,2.5,5.6,5.6,5.6l0,0h1.7c1,0,1.9,0.4,2.7,1.1l1.6,1.6l1.6-1.6c0.7-0.7,1.7-1.1,2.6-1.1h1.7
	c3.1,0,5.6-2.5,5.6-5.6l0,0v-1.7C26.4,18.1,26.8,17.2,27.5,16.5z"/>
<path class="st0" d="M17.2,16.8c0,1.3-1.1,2.4-2.4,2.4s-2.4-1.1-2.4-2.4c0-1.3,0.7-2.2,2.4-2.4c2.2-0.4,3.3-1.5,3.3-3.3
	s-1.5-3.3-3.3-3.3s-3.3,1.5-3.3,3.3"/>
<circle class="st1" cx="14.8" cy="22" r="0.8"/>
</svg>
