<?xml version="1.0" encoding="utf-8"?>
<!-- Generator: Adobe Illustrator 24.2.3, SVG Export Plug-In . SVG Version: 6.00 Build 0)  -->
<svg version="1.1" id="Layer_1" xmlns="http://www.w3.org/2000/svg" xmlns:xlink="http://www.w3.org/1999/xlink" x="0px" y="0px"
	 viewBox="0 0 29.7 29.7" style="enable-background:new 0 0 29.7 29.7;" xml:space="preserve">
<style type="text/css">
	.st0{fill:#00E8CC;stroke:#1547FF;stroke-miterlimit:10;}
	.st1{fill:#0037FF;}
</style>
<path class="st0" d="M27.4,16.4l1.6-1.6l-1.6-1.6c-0.7-0.7-1.1-1.7-1.1-2.6V9c0-3.1-2.5-5.6-5.6-5.6c0,0,0,0,0,0h-1.7
	c-1,0-1.9-0.4-2.6-1.1l-1.6-1.6l-1.6,1.6c-0.7,0.7-1.7,1.1-2.7,1.1H9C5.9,3.4,3.4,5.9,3.4,9v1.7c0,1-0.4,1.9-1.1,2.6l-1.6,1.6
	l1.6,1.6c0.7,0.7,1.1,1.7,1.1,2.6v1.7c0,3.1,2.5,5.6,5.6,5.6l0,0h1.7c1,0,1.9,0.4,2.7,1.1l1.6,1.6l1.6-1.6c0.7-0.7,1.7-1.1,2.6-1.1
	h1.7c3.1,0,5.6-2.5,5.6-5.6c0,0,0,0,0,0v-1.7C26.4,18.1,26.7,17.1,27.4,16.4z"/>
<path class="st1" d="M10,19.6c0-0.8,0.4-1.6,1-2.1c0.6-0.5,1.1-1.1,1.5-1.7c0.2-0.2,0.3-0.5,0.5-0.7c0.5-0.7,1.3-1,2.2-0.9
	c0.7,0,1.3,0.4,1.6,0.9c0.3,0.4,0.5,0.7,0.8,1.1c0.3,0.5,0.8,0.9,1.2,1.3c0.9,0.7,1.3,1.8,0.9,2.9c-0.3,1.1-1.2,1.9-2.3,2.1
	c-0.4,0.1-0.9,0-1.3-0.1c-0.8-0.3-1.7-0.3-2.5,0c-1.5,0.5-3.1-0.4-3.5-1.9c0-0.2-0.1-0.3-0.1-0.5C10.1,19.8,10.1,19.7,10,19.6z"/>
<path class="st1" d="M14.5,10.7c0,0.6,0,1.1-0.1,1.6c-0.1,0.4-0.3,0.8-0.6,1.1c-0.6,0.6-1.6,0.7-2.2,0.1c-0.4-0.4-0.8-0.8-0.9-1.4
	c-0.6-1.4-0.2-3.1,1-4.1c0.3-0.3,0.8-0.5,1.2-0.6c0.4-0.1,0.9,0.1,1.1,0.5c0.2,0.4,0.4,0.8,0.5,1.2c0,0.2,0.1,0.4,0.1,0.7
	C14.5,10.2,14.5,10.5,14.5,10.7z"/>
<path class="st1" d="M15.4,11c0-0.8,0.1-1.5,0.3-2.3c0.1-0.2,0.2-0.4,0.2-0.6c0.3-0.5,0.9-0.8,1.4-0.6C18,7.9,18.6,8.3,19,8.9
	c0.8,1.1,0.9,2.6,0.2,3.8c-0.2,0.3-0.4,0.6-0.7,0.9c-0.7,0.6-1.7,0.6-2.3-0.1c-0.4-0.4-0.6-0.9-0.7-1.5C15.4,11.6,15.4,11.2,15.4,11
	z"/>
<path class="st1" d="M22.9,14.6c0,0.7-0.2,1.3-0.5,1.8c-0.5,0.8-1.5,1.2-2.4,1c-0.4,0-0.7-0.3-0.8-0.6c-0.1-0.3-0.2-0.7-0.2-1.1
	c0.1-1.3,0.6-2.5,1.3-3.5c0.2-0.2,0.4-0.4,0.6-0.6c0.2-0.1,0.4-0.2,0.7-0.2c0.2,0,0.4,0.2,0.5,0.4c0.2,0.3,0.3,0.5,0.4,0.8
	C22.8,13.3,22.9,14,22.9,14.6z"/>
<path class="st1" d="M7,14.6c0-0.7,0.2-1.5,0.5-2.2c0.1-0.2,0.2-0.4,0.4-0.6c0.2-0.3,0.7-0.4,1-0.2c0.2,0.1,0.4,0.3,0.6,0.5
	c0.4,0.5,0.8,1,1,1.6c0.3,0.7,0.5,1.4,0.5,2.1c0,0.2,0,0.5,0,0.7c-0.1,0.7-0.7,1.2-1.3,1.1c0,0,0,0-0.1,0c-1.1,0-2.1-0.8-2.4-1.8
	C7.1,15.3,7,14.9,7,14.6z"/>
</svg>
