<?xml version="1.0" encoding="utf-8"?>
<!-- Generator: Adobe Illustrator 22.1.0, SVG Export Plug-In . SVG Version: 6.00 Build 0)  -->
<svg version="1.1" id="Layer_1" xmlns="http://www.w3.org/2000/svg" xmlns:xlink="http://www.w3.org/1999/xlink" x="0px" y="0px"
	 viewBox="0 0 31.6 31.6" style="enable-background:new 0 0 31.6 31.6;" xml:space="preserve">
<style type="text/css">
	.st0{fill:#0049FF;stroke:#ECFFC2;stroke-width:0.75;stroke-miterlimit:10;}
</style>
<path class="st0" d="M28.6,17.4l1.6-1.6l-1.6-1.6c-0.7-0.7-1.1-1.7-1.1-2.7V9.8c0-3.1-2.5-5.7-5.7-5.7h-1.7c-1,0-2-0.4-2.7-1.1
	l-1.6-1.6L14.2,3c-0.7,0.7-1.7,1.1-2.7,1.1H9.8c-3.1,0-5.7,2.5-5.7,5.7v1.7c0,1-0.4,2-1.1,2.7l-1.6,1.6L3,17.4
	c0.7,0.7,1.1,1.7,1.1,2.7v1.7c0,3.1,2.5,5.7,5.7,5.7h1.7c1,0,2,0.4,2.7,1.1l1.6,1.6l1.6-1.6c0.7-0.7,1.7-1.1,2.7-1.1h1.7
	c3.1,0,5.7-2.5,5.7-5.7v-1.7C27.5,19.1,27.9,18.1,28.6,17.4z"/>
</svg>
