<svg id="Layer_1" data-name="Layer 1" xmlns="http://www.w3.org/2000/svg" viewBox="0 0 15.94 14.92"><defs><style>.cls-1{fill:#0037ff;}</style></defs><path class="cls-1" d="M3,12.1A2.75,2.75,0,0,1,4,10,7.3,7.3,0,0,0,5.56,8.2c.16-.25.33-.49.5-.72a2.27,2.27,0,0,1,2.17-.92,2.12,2.12,0,0,1,1.65.92c.26.36.51.74.76,1.11a6.65,6.65,0,0,0,1.22,1.32,2.68,2.68,0,0,1,.94,2.89,2.73,2.73,0,0,1-2.27,2.07,2.47,2.47,0,0,1-1.29-.09,4.08,4.08,0,0,0-2.54,0,2.83,2.83,0,0,1-3.64-2.36C3.05,12.31,3.05,12.2,3,12.1Z"/><path class="cls-1" d="M7.54,3.2A7.54,7.54,0,0,1,7.4,4.84,2.37,2.37,0,0,1,6.75,6a1.62,1.62,0,0,1-2.23.1,3.18,3.18,0,0,1-.94-1.37,3.5,3.5,0,0,1,1-4A2.7,2.7,0,0,1,5.79,0,1.05,1.05,0,0,1,6.94.49a3,3,0,0,1,.45,1.19,4.92,4.92,0,0,1,.1.67C7.52,2.66,7.53,3,7.54,3.2Z"/><path class="cls-1" d="M8.4,3.49a7.9,7.9,0,0,1,.26-2.28A3.76,3.76,0,0,1,8.91.63,1.12,1.12,0,0,1,10.36.08,3.28,3.28,0,0,1,12,1.36a3.47,3.47,0,0,1,.15,3.82,2.78,2.78,0,0,1-.69.88,1.63,1.63,0,0,1-2.3-.12,2.45,2.45,0,0,1-.68-1.51C8.42,4.06,8.41,3.68,8.4,3.49Z"/><path class="cls-1" d="M15.94,7.11A3.11,3.11,0,0,1,15.42,9,2.44,2.44,0,0,1,13,10a1.06,1.06,0,0,1-.84-.66A2.3,2.3,0,0,1,12,8.25a6.41,6.41,0,0,1,1.34-3.5A2.4,2.4,0,0,1,14,4.17,1,1,0,0,1,14.66,4a.93.93,0,0,1,.55.37,2.83,2.83,0,0,1,.4.84A6.83,6.83,0,0,1,15.94,7.11Z"/><path class="cls-1" d="M0,7A6.6,6.6,0,0,1,.46,4.85a1.87,1.87,0,0,1,.36-.59.78.78,0,0,1,1-.19,2,2,0,0,1,.61.46,5.4,5.4,0,0,1,1,1.56,5.82,5.82,0,0,1,.54,2.13,3.42,3.42,0,0,1,0,.71A1.21,1.21,0,0,1,2.47,10,2.5,2.5,0,0,1,.14,8.16,3.93,3.93,0,0,1,0,7Z"/></svg>